<svg xmlns="http://www.w3.org/2000/svg" width="920" height="500" viewBox="0 0 920 500">
<rect width="100%" height="100%" fill="white"/>
<text x="80" y="25" font-family="Arial" font-size="16">visual-antmaze-medium task5: v7 vs v8.1</text>
<line x1="80" y1="400.0" x2="840" y2="400.0" stroke="#ddd"/>
<text x="45" y="404.0" font-family="Arial" font-size="11">0</text>
<line x1="80" y1="310.0" x2="840" y2="310.0" stroke="#ddd"/>
<text x="45" y="314.0" font-family="Arial" font-size="11">0.25</text>
<line x1="80" y1="220.0" x2="840" y2="220.0" stroke="#ddd"/>
<text x="45" y="224.0" font-family="Arial" font-size="11">0.5</text>
<line x1="80" y1="130.0" x2="840" y2="130.0" stroke="#ddd"/>
<text x="45" y="134.0" font-family="Arial" font-size="11">0.75</text>
<line x1="80" y1="40.0" x2="840" y2="40.0" stroke="#ddd"/>
<text x="45" y="44.0" font-family="Arial" font-size="11">1</text>
<line x1="80" y1="400" x2="840" y2="400" stroke="#333"/><line x1="80" y1="40" x2="80" y2="400" stroke="#333"/>
<line x1="80.0" y1="400" x2="80.0" y2="405" stroke="#333"/>
<text x="68.0" y="420" font-family="Arial" font-size="11">0</text>
<line x1="232.0" y1="400" x2="232.0" y2="405" stroke="#333"/>
<text x="220.0" y="420" font-family="Arial" font-size="11">200k</text>
<line x1="384.0" y1="400" x2="384.0" y2="405" stroke="#333"/>
<text x="372.0" y="420" font-family="Arial" font-size="11">400k</text>
<line x1="536.0" y1="400" x2="536.0" y2="405" stroke="#333"/>
<text x="524.0" y="420" font-family="Arial" font-size="11">600k</text>
<line x1="688.0" y1="400" x2="688.0" y2="405" stroke="#333"/>
<text x="676.0" y="420" font-family="Arial" font-size="11">800k</text>
<line x1="840.0" y1="400" x2="840.0" y2="405" stroke="#333"/>
<text x="828.0" y="420" font-family="Arial" font-size="11">1M</text>
<polyline points="80.0,400.0 156.0,306.4 232.0,256.0 308.0,148.0 384.0,234.4 460.0,328.0 536.0,292.0 612.0,356.8 688.0,335.2 764.0,320.8 840.0,356.8" fill="none" stroke="#1f77b4" stroke-width="2"/>
<circle cx="308.0" cy="148.0" r="6" fill="#1f77b4" stroke="black"/>
<rect x="835.0" y="351.8" width="10" height="10" fill="#1f77b4" stroke="black"/>
<line x1="80" y1="445" x2="105" y2="445" stroke="#1f77b4" stroke-width="2"/><text x="112" y="449" font-family="Arial" font-size="11">v7 / R2 / seed2 best=0.7@300000 final=0.12</text>
<polyline points="80.0,400.0 156.0,270.4 232.0,263.2 308.0,263.2 384.0,320.8 460.0,342.4 536.0,263.2 612.0,320.8 688.0,306.4 764.0,306.4 840.0,328.0" fill="none" stroke="#d62728" stroke-width="2"/>
<circle cx="232.0" cy="263.2" r="6" fill="#d62728" stroke="black"/>
<rect x="835.0" y="323.0" width="10" height="10" fill="#d62728" stroke="black"/>
<line x1="80" y1="460" x2="105" y2="460" stroke="#d62728" stroke-width="2"/><text x="112" y="464" font-family="Arial" font-size="11">v8p1 / R2_stable_strong / seed2 best=0.38@200000 final=0.2</text>
</svg>