<svg xmlns="http://www.w3.org/2000/svg" width="920" height="500" viewBox="0 0 920 500">
<rect width="100%" height="100%" fill="white"/>
<text x="80" y="25" font-family="Arial" font-size="16">visual-scene-play task2: Best-Eval / Peak Success</text>
<line x1="80" y1="400.0" x2="840" y2="400.0" stroke="#ddd"/>
<text x="45" y="404.0" font-family="Arial" font-size="11">0</text>
<line x1="80" y1="310.0" x2="840" y2="310.0" stroke="#ddd"/>
<text x="45" y="314.0" font-family="Arial" font-size="11">0.25</text>
<line x1="80" y1="220.0" x2="840" y2="220.0" stroke="#ddd"/>
<text x="45" y="224.0" font-family="Arial" font-size="11">0.5</text>
<line x1="80" y1="130.0" x2="840" y2="130.0" stroke="#ddd"/>
<text x="45" y="134.0" font-family="Arial" font-size="11">0.75</text>
<line x1="80" y1="40.0" x2="840" y2="40.0" stroke="#ddd"/>
<text x="45" y="44.0" font-family="Arial" font-size="11">1</text>
<line x1="80" y1="400" x2="840" y2="400" stroke="#333"/><line x1="80" y1="40" x2="80" y2="400" stroke="#333"/>
<line x1="80.0" y1="400" x2="80.0" y2="405" stroke="#333"/>
<text x="68.0" y="420" font-family="Arial" font-size="11">0</text>
<line x1="232.0" y1="400" x2="232.0" y2="405" stroke="#333"/>
<text x="220.0" y="420" font-family="Arial" font-size="11">200k</text>
<line x1="384.0" y1="400" x2="384.0" y2="405" stroke="#333"/>
<text x="372.0" y="420" font-family="Arial" font-size="11">400k</text>
<line x1="536.0" y1="400" x2="536.0" y2="405" stroke="#333"/>
<text x="524.0" y="420" font-family="Arial" font-size="11">600k</text>
<line x1="688.0" y1="400" x2="688.0" y2="405" stroke="#333"/>
<text x="676.0" y="420" font-family="Arial" font-size="11">800k</text>
<line x1="840.0" y1="400" x2="840.0" y2="405" stroke="#333"/>
<text x="828.0" y="420" font-family="Arial" font-size="11">1M</text>
<polyline points="80.0,400.0 118.0,400.0 156.0,400.0 194.0,400.0 232.0,400.0 270.0,400.0 308.0,400.0" fill="none" stroke="#1f77b4" stroke-width="2"/>
<circle cx="80.0" cy="400.0" r="6" fill="#1f77b4" stroke="black"/>
<rect x="303.0" y="395.0" width="10" height="10" fill="#1f77b4" stroke="black"/>
<line x1="80" y1="445" x2="105" y2="445" stroke="#1f77b4" stroke-width="2"/><text x="112" y="449" font-family="Arial" font-size="11">v6 / A1 / seed2 best=0@1 final=0</text>
<polyline points="80.0,400.0 118.0,400.0 156.0,400.0 194.0,400.0 232.0,400.0 270.0,400.0 308.0,400.0" fill="none" stroke="#d62728" stroke-width="2"/>
<circle cx="80.0" cy="400.0" r="6" fill="#d62728" stroke="black"/>
<rect x="303.0" y="395.0" width="10" height="10" fill="#d62728" stroke="black"/>
<line x1="80" y1="460" x2="105" y2="460" stroke="#d62728" stroke-width="2"/><text x="112" y="464" font-family="Arial" font-size="11">v6 / R2 / seed2 best=0@1 final=0</text>
<polyline points="80.0,400.0 118.0,400.0 156.0,400.0 194.0,400.0 232.0,400.0 270.0,385.6 308.0,392.8 346.0,356.8 384.0,356.8 422.0,356.8 460.0,364.0" fill="none" stroke="#2ca02c" stroke-width="2"/>
<circle cx="346.0" cy="356.8" r="6" fill="#2ca02c" stroke="black"/>
<rect x="455.0" y="359.0" width="10" height="10" fill="#2ca02c" stroke="black"/>
<line x1="80" y1="475" x2="105" y2="475" stroke="#2ca02c" stroke-width="2"/><text x="112" y="479" font-family="Arial" font-size="11">v8p1 / R2_stable_strong / seed2 best=0.12@350000 final=0.1</text>
<polyline points="80.0,400.0 118.0,400.0 156.0,400.0 194.0,371.2 232.0,385.6 270.0,392.8 308.0,400.0 346.0,378.4 384.0,364.0 422.0,349.6 460.0,392.8" fill="none" stroke="#9467bd" stroke-width="2"/>
<circle cx="422.0" cy="349.6" r="6" fill="#9467bd" stroke="black"/>
<rect x="455.0" y="387.8" width="10" height="10" fill="#9467bd" stroke="black"/>
<line x1="80" y1="490" x2="105" y2="490" stroke="#9467bd" stroke-width="2"/><text x="112" y="494" font-family="Arial" font-size="11">v8p1 / R2_stable_strong / seed3 best=0.14@450000 final=0.02</text>
<polyline points="80.0,400.0 118.0,400.0 156.0,400.0 194.0,378.4 232.0,400.0 270.0,385.6 308.0,392.8 346.0,349.6 384.0,349.6 422.0,335.2 460.0,349.6" fill="none" stroke="#ff7f0e" stroke-width="2"/>
<circle cx="422.0" cy="335.2" r="6" fill="#ff7f0e" stroke="black"/>
<rect x="455.0" y="344.6" width="10" height="10" fill="#ff7f0e" stroke="black"/>
<line x1="80" y1="505" x2="105" y2="505" stroke="#ff7f0e" stroke-width="2"/><text x="112" y="509" font-family="Arial" font-size="11">v8p1 / R2_stable_strong / seed4 best=0.18@450000 final=0.14</text>
<polyline points="80.0,400.0 118.0,400.0 156.0,378.4 194.0,342.4 232.0,400.0" fill="none" stroke="#17becf" stroke-width="2"/>
<circle cx="194.0" cy="342.4" r="6" fill="#17becf" stroke="black"/>
<rect x="227.0" y="395.0" width="10" height="10" fill="#17becf" stroke="black"/>
<line x1="80" y1="520" x2="105" y2="520" stroke="#17becf" stroke-width="2"/><text x="112" y="524" font-family="Arial" font-size="11">v8p1 / R2_stable_strong / seed5 best=0.16@150000 final=0</text>
<polyline points="80.0,400.0 118.0,392.8 156.0,385.6 194.0,385.6 232.0,392.8 270.0,378.4 308.0,400.0 346.0,342.4" fill="none" stroke="#8c564b" stroke-width="2"/>
<circle cx="346.0" cy="342.4" r="6" fill="#8c564b" stroke="black"/>
<rect x="341.0" y="337.4" width="10" height="10" fill="#8c564b" stroke="black"/>
<line x1="80" y1="535" x2="105" y2="535" stroke="#8c564b" stroke-width="2"/><text x="112" y="539" font-family="Arial" font-size="11">v8p1 / R2_stable_strong / seed6 best=0.16@350000 final=0.16</text>
<polyline points="80.0,400.0 118.0,400.0 156.0,400.0 194.0,392.8 232.0,385.6 270.0,392.8 308.0,385.6 346.0,385.6 384.0,371.2 422.0,378.4 460.0,364.0" fill="none" stroke="#e377c2" stroke-width="2"/>
<circle cx="460.0" cy="364.0" r="6" fill="#e377c2" stroke="black"/>
<rect x="455.0" y="359.0" width="10" height="10" fill="#e377c2" stroke="black"/>
<line x1="80" y1="550" x2="105" y2="550" stroke="#e377c2" stroke-width="2"/><text x="112" y="554" font-family="Arial" font-size="11">v8p1 / R2_stable_strong / seed7 best=0.1@500000 final=0.1</text>
<polyline points="80.0,400.0 118.0,378.4 156.0,400.0 194.0,400.0 232.0,385.6 270.0,400.0 308.0,400.0 346.0,364.0 384.0,364.0 422.0,364.0 460.0,364.0" fill="none" stroke="#1f77b4" stroke-width="2"/>
<circle cx="346.0" cy="364.0" r="6" fill="#1f77b4" stroke="black"/>
<rect x="455.0" y="359.0" width="10" height="10" fill="#1f77b4" stroke="black"/>
<line x1="80" y1="565" x2="105" y2="565" stroke="#1f77b4" stroke-width="2"/><text x="112" y="569" font-family="Arial" font-size="11">v8p1 / R2_stable_strong / seed8 best=0.1@350000 final=0.1</text>
</svg>